<svg version="1.1" id="Layer_1" xmlns="http://www.w3.org/2000/svg" xmlns:xlink="http://www.w3.org/1999/xlink" x="0px" y="0px"
	 width="100%" viewBox="0 0 1024 1024" enable-background="new 0 0 1024 1024" xml:space="preserve">
<path fill="#000000" opacity="1.000000" stroke="none" 
	d="
M861.005127,620.247192 
	C852.388489,618.388306 844.058655,618.104736 835.737549,617.909790 
	C817.915588,617.492004 800.098206,617.879028 782.277893,618.263184 
	C775.927490,618.400085 772.126160,620.435242 769.811646,626.931274 
	C764.461121,641.948669 757.802063,656.469360 750.526855,671.102539 
	C754.607605,672.018555 757.828125,670.356323 761.112061,669.674683 
	C782.146912,665.308228 803.324158,661.416504 824.646179,659.282715 
	C851.805725,656.564697 879.150146,655.997559 906.477356,657.469788 
	C910.447510,657.683716 913.039307,659.214355 912.969849,663.326843 
	C912.893860,667.823364 909.733093,669.047546 905.776917,669.108032 
	C887.621826,669.385681 869.476807,669.761902 851.343140,670.929443 
	C821.387451,672.858215 791.757568,676.867310 762.520874,683.703613 
	C757.337036,684.915710 752.170959,686.209412 746.968567,687.335510 
	C741.758240,688.463379 738.455383,691.509521 736.947693,696.521973 
	C737.905212,698.123657 739.382935,697.602356 740.627258,697.634827 
	C756.944092,698.061035 773.267334,698.295776 789.578552,698.872375 
	C825.641113,700.147156 861.118896,705.612366 896.176025,714.045288 
	C913.504456,718.213501 930.826233,722.373535 947.307556,729.342957 
	C949.443420,730.246155 951.511169,731.359436 953.491516,732.570007 
	C956.296387,734.284424 957.997375,736.473206 956.292908,740.028259 
	C954.594055,743.571533 952.234619,744.985901 948.262390,743.638794 
	C935.655029,739.362793 923.200500,734.589233 910.286560,731.277466 
	C878.004822,722.998901 845.284119,717.324463 812.086487,714.141724 
	C786.675964,711.705688 761.234375,711.191589 735.748230,711.017883 
	C730.327393,710.981018 726.718140,712.504089 724.077271,717.437683 
	C721.282227,722.659302 717.686584,727.452393 713.847900,733.342285 
	C721.076843,733.819641 727.282593,734.428345 733.500732,734.607727 
	C772.330017,735.728333 810.976135,738.557739 849.091187,746.557678 
	C850.066406,746.762390 851.040588,746.985168 851.998108,747.259277 
	C855.586121,748.286560 858.727966,749.819641 858.154907,754.352539 
	C857.704346,757.915710 853.852112,760.374695 849.266174,759.722229 
	C842.353333,758.738770 835.496277,757.368164 828.608337,756.204590 
	C810.878174,753.209351 792.986755,751.712097 775.087708,750.137451 
	C753.834167,748.267578 732.526489,748.117126 711.243286,747.186096 
	C706.920410,746.997070 704.248413,748.374146 701.800049,752.017700 
	C693.626404,764.181641 685.051880,776.075867 676.671326,788.101562 
	C675.469849,789.825684 673.787109,791.339722 673.633301,794.243713 
	C678.998779,795.682373 684.426086,797.054138 689.805481,798.593323 
	C726.945435,809.220398 762.683105,823.192261 795.869812,843.217773 
	C797.722107,844.335510 799.579346,845.465637 801.315735,846.750244 
	C804.410645,849.039917 806.327515,851.717957 803.713074,855.622498 
	C801.268005,859.273987 798.298035,859.370178 794.663757,857.396301 
	C783.541748,851.355652 772.635193,844.918030 761.126343,839.590332 
	C732.327698,826.258545 702.529236,815.853699 671.753174,808.092712 
	C665.780762,806.586609 662.164551,807.945679 658.540710,812.686340 
	C645.290283,830.020691 631.719543,847.101868 617.431152,863.614136 
	C610.306580,871.847656 601.898926,878.296387 592.265320,882.986938 
	C568.859741,894.383057 544.318359,902.918518 519.621948,911.027100 
	C515.126709,912.503052 510.897125,912.264954 506.460632,910.811951 
	C485.085815,903.811768 464.119965,895.709290 443.066650,887.821167 
	C424.265137,880.776794 411.122406,867.151855 399.063354,852.041504 
	C388.150116,838.366943 377.278809,824.657959 366.521057,810.861145 
	C364.164764,807.839111 361.786682,806.995544 357.942139,807.886780 
	C316.321564,817.535461 276.678406,832.291321 239.379440,853.216064 
	C236.473694,854.846191 233.575012,856.506714 230.570831,857.938660 
	C227.598679,859.355530 224.316757,859.244995 222.383591,856.563599 
	C220.335403,853.722717 221.184311,850.424194 223.625641,847.921265 
	C226.323807,845.155273 229.744461,843.346924 233.086197,841.466187 
	C269.599854,820.916321 308.268982,805.824097 348.900757,795.692261 
	C350.498871,795.293762 352.058289,794.740112 354.303741,794.054810 
	C351.441528,790.009705 348.775146,786.305481 346.175476,782.555115 
	C338.772644,771.875366 331.330475,761.221558 324.062225,750.450684 
	C322.454620,748.068420 320.593384,747.188721 317.833496,747.275818 
	C289.229218,748.178955 260.602936,748.370605 232.137527,752.099731 
	C214.167847,754.453857 196.118149,756.178040 178.354660,759.926819 
	C177.705475,760.063782 177.034515,760.102112 176.372131,760.171448 
	C172.184998,760.609741 168.908478,759.209656 168.090424,754.848633 
	C167.248566,750.360535 170.221771,747.936218 174.091995,747.038330 
	C181.054169,745.423157 188.065872,743.883545 195.139023,742.907776 
	C232.111084,737.807800 269.267090,734.878113 306.579529,733.943420 
	C308.201508,733.902832 309.903137,734.003174 311.945770,732.343811 
	C307.898712,725.686157 303.920013,719.033447 299.813080,712.460938 
	C298.794983,710.831665 296.868195,711.135498 295.221924,711.132568 
	C234.596115,711.023865 174.448242,715.354004 115.645477,731.288879 
	C102.808846,734.767517 90.252899,739.286255 77.584602,743.378296 
	C74.742065,744.296448 72.100243,744.821716 69.818481,742.177002 
	C66.651321,738.506042 67.411255,734.668579 72.102486,731.863098 
	C78.892159,727.802734 86.451859,725.604919 93.964066,723.466919 
	C140.071823,710.344055 186.932968,701.656067 234.927795,699.503418 
	C251.725235,698.750061 268.500000,697.521912 285.328430,697.624084 
	C286.820557,697.633057 288.338654,697.618774 289.817657,696.327026 
	C287.992554,691.778931 285.534668,688.595581 280.037231,687.227600 
	C239.515594,677.144714 198.433929,671.436279 156.708008,669.927429 
	C146.045792,669.541870 135.393021,669.460266 124.734749,669.283752 
	C122.737122,669.250671 120.734116,669.200684 118.745789,669.022400 
	C115.259300,668.709961 113.151314,666.571655 112.844727,663.275330 
	C112.511292,659.690369 114.950546,657.533936 118.208817,657.205872 
	C124.491661,656.573303 130.826492,656.156677 137.138824,656.168030 
	C168.288391,656.223938 199.278793,658.200806 230.096497,663.134094 
	C245.035721,665.525635 259.822876,668.662842 274.920441,671.476318 
	C275.560547,669.014099 274.296417,667.336792 273.495789,665.645752 
	C267.505341,652.992859 261.832886,640.188965 256.962524,627.076599 
	C254.844421,621.374084 251.333481,618.704285 245.558670,618.509216 
	C223.587845,617.767212 201.628830,616.395386 179.648727,618.724915 
	C168.545609,619.901672 157.547928,621.517761 146.658035,623.953369 
	C145.218719,624.275391 143.658737,624.354065 142.192017,624.196777 
	C138.898544,623.843628 136.437897,622.166199 136.001221,618.712280 
	C135.563904,615.253113 137.448654,612.946533 140.661942,611.928467 
	C148.459702,609.457947 156.505386,608.032104 164.554367,606.719360 
	C188.685913,602.783508 213.038589,603.934570 237.329773,603.756836 
	C247.974152,603.678955 248.073929,603.713074 245.455795,593.310303 
	C240.635239,574.156433 238.035385,554.752258 238.929169,534.986755 
	C239.911087,513.272156 243.932449,492.062927 250.204117,471.272430 
	C253.519440,460.282196 256.951111,449.327026 260.258148,438.334351 
	C260.768890,436.636597 261.545563,434.899719 261.000854,433.084106 
	C259.905792,432.076935 258.732269,432.480804 257.608368,432.672516 
	C239.794296,435.711212 221.879822,434.880737 204.408478,431.424255 
	C169.790924,424.575592 139.921188,408.328552 116.153206,381.942627 
	C82.920609,345.049591 65.527367,301.485596 62.607445,252.016006 
	C61.552513,234.143250 61.939247,216.388809 66.816772,199.007431 
	C78.912697,155.902786 119.315369,121.688316 163.711365,115.526962 
	C221.073227,107.566170 268.992126,126.087563 309.544800,165.945862 
	C340.128906,196.006332 361.029694,232.403641 377.273529,271.709686 
	C380.631897,279.836121 380.595428,279.933044 387.753418,275.089233 
	C415.994537,255.978394 447.156677,244.437988 480.819214,239.809326 
	C529.642944,233.095932 575.935547,241.329147 619.713928,264.057617 
	C628.275635,268.502625 636.268127,273.924805 644.610474,278.212006 
	C646.298218,277.674194 646.529236,276.447601 646.905823,275.381653 
	C656.755493,247.503952 670.817505,221.725510 688.386475,198.160248 
	C712.588135,165.698456 741.079041,137.772263 780.320007,123.837067 
	C820.900574,109.426117 861.339233,108.613686 900.539978,128.637985 
	C931.208069,144.303665 950.578979,169.512589 959.141663,202.705963 
	C968.674683,239.660568 963.254395,275.786133 951.185181,311.192596 
	C938.207214,349.265198 916.318787,381.420990 883.422424,404.800018 
	C854.147644,425.605286 821.328857,436.568848 784.747559,433.502930 
	C778.184753,432.952850 771.585571,432.836487 764.847656,432.512390 
	C764.585449,437.149017 766.282776,440.860138 767.573853,444.555603 
	C775.880249,468.330902 782.854126,492.453552 785.888733,517.514954 
	C789.060730,543.711426 787.613708,569.673950 780.646240,595.233398 
	C779.868286,598.087036 778.771301,600.920837 779.004517,604.076477 
	C782.003235,605.486633 784.922852,604.109619 787.838562,604.027161 
	C817.508667,603.188477 847.120850,603.411499 876.398071,609.205200 
	C879.326050,609.784607 882.184509,610.764465 885.031189,611.693604 
	C888.641418,612.872009 890.791016,615.234253 889.820435,619.220520 
	C888.847473,623.216309 885.681335,624.302673 882.072876,623.776123 
	C875.173462,622.769226 868.315918,621.475342 861.005127,620.247192 
M497.410217,753.809753 
	C507.895386,758.011719 518.362610,757.918091 528.960510,754.055542 
	C532.053101,752.928345 535.436279,752.543152 538.715698,751.993164 
	C554.550476,749.337280 568.207520,757.075134 571.925598,770.725159 
	C574.551880,780.367065 573.484314,789.354919 568.162781,798.029541 
	C559.445190,812.239929 546.633179,822.319641 532.970703,830.740051 
	C524.756104,835.802917 522.072083,840.873901 523.897217,849.714600 
	C524.456787,852.425232 525.056274,854.305237 527.735229,855.430054 
	C535.718689,858.782227 543.630798,862.304077 551.580688,865.736633 
	C553.114075,866.398804 554.755615,867.162781 556.409790,866.571594 
	C569.051514,862.053589 582.122192,858.692505 591.690247,847.929626 
	C611.535889,825.605530 629.512451,801.833008 647.270020,777.875427 
	C653.983521,768.817932 660.426514,759.560059 667.298401,749.966858 
	C655.546143,750.297241 644.790222,752.326782 633.977844,753.965454 
	C627.578308,754.935425 621.247192,756.589661 614.684753,756.295471 
	C611.687317,756.161133 609.435791,754.956665 608.881836,751.870178 
	C608.361511,748.971191 609.560425,746.588318 612.158508,745.167236 
	C613.449158,744.461304 614.939819,744.066528 616.383362,743.703308 
	C634.215637,739.217773 652.514832,737.855225 670.690674,735.688232 
	C673.024536,735.409973 675.750183,735.723633 677.251953,733.872192 
	C682.234009,727.730408 686.308960,720.963562 690.869019,713.460327 
	C682.806763,713.098938 675.987305,714.705811 669.206116,715.893005 
	C652.338135,718.846313 635.541199,722.208374 618.729065,725.475037 
	C614.875183,726.223816 611.381531,725.865479 610.288269,721.588135 
	C609.139038,717.091797 612.260071,715.015503 616.033936,713.641602 
	C626.077759,709.985168 636.443054,707.601746 646.940674,705.745239 
	C662.196716,703.047241 677.506592,700.760559 692.970093,699.573120 
	C696.733459,699.284180 700.333801,698.944458 702.873474,695.027466 
	C715.606506,675.390137 725.996155,654.539185 735.527954,633.227417 
	C736.285034,631.534668 737.571960,629.827148 736.809204,627.496887 
	C735.309021,627.828735 733.998718,628.014343 732.754578,628.408813 
	C698.298584,639.332092 666.666382,655.766663 637.584045,677.183472 
	C630.076355,682.712219 623.054382,688.915527 614.999512,693.680786 
	C612.362610,695.240662 609.352905,696.561951 606.852295,693.581604 
	C604.483826,690.758728 605.858276,687.930054 607.650696,685.354614 
	C610.149414,681.764343 613.386353,678.856445 616.724731,676.102539 
	C636.472961,659.811768 657.866150,646.017883 680.757935,634.596741 
	C699.580078,625.206055 719.321899,618.101379 739.424927,612.013733 
	C743.139893,610.888733 745.330566,608.815002 746.700256,605.247314 
	C758.955688,573.323669 761.688599,540.547363 754.880981,507.128937 
	C750.390503,485.085541 743.004456,463.809387 736.130493,442.418304 
	C729.359619,421.347992 720.435242,401.034393 714.928101,379.496826 
	C707.333252,349.794617 706.389832,320.435577 716.388489,291.078918 
	C722.261597,273.835175 729.592896,257.572449 743.932129,245.502426 
	C745.635620,244.068497 747.062805,241.864136 750.040222,242.809052 
	C751.769043,246.645737 747.781067,249.903824 748.563599,253.735947 
	C750.608582,253.529633 751.111023,251.963699 752.000549,250.833099 
	C763.643127,236.035370 777.206482,223.350983 793.282410,213.458725 
	C796.973206,211.187637 800.784302,209.091446 805.104797,208.229797 
	C806.964844,207.858826 808.811035,207.956390 810.137268,209.582703 
	C811.482239,211.232010 810.455566,212.751617 809.655090,214.186676 
	C808.520386,216.221252 807.357849,218.250702 806.054932,220.179489 
	C791.286072,242.042725 780.374023,265.678741 773.473450,291.144318 
	C773.082031,292.589020 771.754028,294.115417 773.292603,296.202820 
	C781.604431,291.142700 788.826843,283.945465 799.865967,281.400543 
	C798.541870,292.716827 791.918823,301.256897 790.009277,311.714478 
	C797.549744,309.547577 804.383118,307.482483 811.274292,305.632355 
	C817.990479,303.829193 824.719360,301.720367 832.076477,303.047974 
	C831.315857,306.748810 828.912048,308.133362 826.777771,309.590607 
	C821.000488,313.535156 815.183105,317.430267 809.255920,321.144379 
	C786.037415,335.693634 765.995239,353.911560 748.121033,374.523682 
	C741.162659,382.547913 745.256592,395.234680 755.430847,398.482605 
	C767.088257,402.203979 779.103088,403.704651 791.328308,403.875916 
	C816.286316,404.225403 839.650940,398.638428 860.407959,384.478973 
	C893.237000,362.084595 914.131958,330.929993 925.818115,293.293671 
	C933.094421,269.859741 937.253662,245.909637 933.407654,221.457840 
	C927.856140,186.163147 907.220642,162.705826 874.452454,149.193039 
	C858.100037,142.449722 841.101135,144.075897 824.168701,144.000931 
	C813.487366,143.953644 803.420959,146.789520 793.558655,150.448090 
	C761.449341,162.359482 736.453369,183.626144 715.949829,210.467728 
	C690.722229,243.493561 673.925049,280.649078 663.526367,320.744476 
	C660.649963,331.835175 658.748718,343.175385 656.112000,354.333038 
	C654.681458,360.386383 651.846619,362.045227 645.844360,360.766113 
	C639.651062,359.446350 633.615234,357.527344 627.779724,355.031860 
	C624.591003,353.668243 623.353638,351.448181 624.003540,347.866333 
	C626.173584,335.906830 628.637512,324.008545 632.401672,312.453094 
	C633.564758,308.882416 632.734802,306.721191 629.965515,304.817474 
	C625.026611,301.422363 619.973328,298.184814 615.148560,294.635773 
	C611.904236,292.249329 609.383972,292.780670 606.231873,295.020050 
	C593.429626,304.115173 582.939880,315.369110 574.093750,328.256378 
	C572.209290,331.001678 570.311707,333.750946 568.219971,336.336426 
	C566.861877,338.015137 565.121643,339.734863 562.686584,338.771667 
	C560.440857,337.883270 559.638489,335.782776 559.723572,333.445465 
	C559.820129,330.790680 559.786987,328.095154 560.249878,325.495636 
	C562.806030,311.140808 567.529358,297.498688 574.062988,284.471344 
	C575.094604,282.414307 576.396667,280.425812 576.304871,277.955017 
	C574.756775,276.129639 572.506531,275.945282 570.478577,275.328156 
	C557.367004,271.338135 543.967346,269.192505 530.298340,267.942230 
	C480.976288,263.430634 436.778137,276.976715 396.375305,304.747955 
	C393.077179,307.014923 392.397400,309.140442 393.452789,312.992615 
	C396.529083,324.220764 399.043762,335.601593 401.890656,346.894348 
	C402.977692,351.206024 401.716644,353.976959 397.397949,355.379456 
	C392.806702,356.870361 388.325623,358.722351 383.693787,360.061707 
	C373.635590,362.970215 370.969971,361.508942 368.617126,351.117554 
	C363.397552,328.065155 358.307831,304.991119 349.691132,282.885162 
	C332.172943,237.942551 306.874847,198.540817 267.626465,169.408249 
	C236.887482,146.591904 202.196335,137.672897 164.726791,145.673553 
	C127.010544,153.726883 101.629089,176.687851 93.245171,215.244919 
	C89.050941,234.533966 90.001259,254.254150 94.278671,273.699768 
	C102.614639,311.595947 119.086258,344.979401 148.227829,371.317322 
	C169.984848,390.981079 195.517197,402.107666 224.862869,403.824677 
	C241.776840,404.814301 258.449615,403.129852 274.482635,397.144379 
	C275.868622,396.626953 277.380554,396.400909 278.368744,395.068695 
	C281.778137,390.472565 281.862610,379.962341 278.152191,375.548218 
	C264.269196,359.032379 248.922195,344.016449 231.352737,331.430664 
	C220.656998,323.768860 209.638840,316.558350 198.835449,309.044556 
	C196.912491,307.707123 194.466721,306.489288 194.638763,302.552979 
	C208.794815,303.030853 221.866196,307.895935 236.021698,311.321747 
	C233.591095,300.760559 227.419235,292.206268 226.538437,281.172058 
	C237.494507,283.812378 244.360229,291.252899 253.294586,296.726318 
	C251.703735,287.920319 249.315842,280.163269 246.677689,272.501495 
	C239.843979,252.654785 229.195724,234.775696 217.909592,217.228439 
	C216.458755,214.972763 213.854340,212.429276 216.217102,209.614960 
	C218.671585,206.691422 221.746262,208.675186 224.506470,209.696243 
	C225.595688,210.099182 226.640579,210.641815 227.666016,211.194397 
	C242.805908,219.352631 255.626587,230.406967 267.167572,243.020874 
	C271.026154,247.238205 274.658813,251.662247 278.782410,256.441071 
	C278.636993,251.280014 275.097687,247.518204 276.124359,242.944519 
	C278.756348,242.034531 280.229889,243.567322 281.676331,244.878494 
	C285.630310,248.462738 289.412689,252.219971 292.588318,256.539459 
	C309.172211,279.096954 315.335632,305.102539 317.162201,332.375824 
	C318.437286,351.415100 313.875244,369.735596 308.615723,387.833160 
	C300.248199,416.625275 288.496796,444.284027 280.000336,473.047546 
	C274.046722,493.202606 268.597778,513.433899 267.329315,534.507812 
	C265.912842,558.041748 271.230713,580.431274 279.122223,602.417786 
	C281.104187,607.939636 283.897461,611.218567 289.764252,612.812988 
	C320.544983,621.178345 349.032898,634.790588 376.053864,651.576294 
	C391.086700,660.914917 405.317322,671.339966 418.247650,683.473083 
	C421.145721,686.192383 423.146027,689.145264 420.293823,693.028198 
	C418.114838,695.994629 414.190338,696.040039 409.999481,693.088928 
	C407.552094,691.365417 405.292023,689.374939 402.956665,687.493408 
	C370.046661,660.979431 333.589355,640.995789 293.358185,627.961670 
	C292.168518,627.576294 290.996216,626.667480 289.631592,627.689209 
	C289.691986,628.200623 289.644440,628.732056 289.822571,629.172180 
	C299.285522,652.553162 310.401581,675.057312 325.181519,695.607971 
	C326.613861,697.599609 328.505127,698.535156 331.060455,698.829102 
	C341.642090,700.046448 352.192841,701.530640 362.759125,702.883911 
	C378.489075,704.898438 393.875153,708.508972 409.025574,713.098022 
	C412.734650,714.221497 416.429718,716.226501 415.652832,721.116821 
	C415.059631,724.850769 411.320251,726.593262 405.950745,725.381775 
	C385.021362,720.659424 364.026489,716.338745 342.701813,713.793335 
	C340.963959,713.585815 339.120300,712.684692 337.309845,714.846191 
	C340.318909,721.760254 344.977264,727.819702 349.371368,734.002075 
	C350.072754,734.988831 352.033997,735.330200 353.468994,735.502747 
	C360.408447,736.337280 367.371307,736.974854 374.318024,737.752319 
	C386.574371,739.124023 398.772308,740.909546 410.675873,744.199463 
	C414.067780,745.136963 417.708038,746.825684 416.637909,751.398132 
	C415.586487,755.890747 412.292267,757.222900 407.800415,756.460083 
	C397.973511,754.791077 388.141785,753.090759 378.255646,751.854187 
	C372.638031,751.151550 366.979675,749.511719 361.229462,750.652527 
	C361.126251,752.753906 362.194000,753.891846 363.041107,755.085571 
	C382.910187,783.083069 403.245300,810.738525 425.171387,837.167419 
	C430.850250,844.012451 435.743561,851.807678 444.187897,855.999756 
	C451.056213,859.409546 457.967621,862.685242 465.128296,865.448425 
	C468.726074,866.836792 472.115967,867.003296 475.783173,865.585999 
	C481.230774,863.480713 486.305725,860.165955 491.812286,858.713074 
	C502.212952,855.968994 503.547729,848.891846 502.760895,840.092285 
	C502.746124,839.926941 502.743378,839.757935 502.758026,839.592712 
	C502.945496,837.481506 501.915222,836.168823 500.087311,835.254883 
	C489.685822,830.053772 481.150299,822.295105 472.370270,814.888489 
	C464.744720,808.455811 458.691650,800.782715 454.845703,791.515137 
	C448.388550,775.955444 456.617645,750.855042 481.246918,751.746094 
	C486.418060,751.933167 491.509247,752.647034 497.410217,753.809753 
M536.027039,803.529602 
	C541.714355,797.491455 548.480530,792.382202 552.308777,784.741577 
	C553.979309,781.407532 554.417297,777.979309 552.011963,774.833313 
	C549.638611,771.729126 546.371155,771.232361 542.610168,771.830627 
	C534.040222,773.193848 525.754211,775.665527 517.424072,777.963806 
	C514.757263,778.699707 512.264832,778.708374 509.600098,777.943726 
	C500.974365,775.468567 492.325775,773.071838 483.419159,771.752502 
	C475.678253,770.605835 470.778381,776.507751 473.584503,783.828369 
	C474.289764,785.668274 475.284943,787.506226 476.550171,789.004517 
	C484.737061,798.699829 493.589874,807.715576 504.011810,815.065002 
	C507.798737,817.735535 511.825317,818.200012 516.349976,817.065918 
	C524.399841,815.048279 529.684448,809.177124 536.027039,803.529602 
M267.306732,270.346619 
	C266.362762,269.251007 265.418793,268.155365 263.646942,266.098816 
	C264.689636,270.019470 265.508789,272.705017 266.113037,275.438110 
	C269.128937,289.080292 272.789062,302.680695 269.327362,316.828735 
	C268.986847,318.220398 269.293365,319.503754 270.161194,320.598938 
	C276.240540,328.271088 282.973419,335.314484 290.629608,341.701843 
	C291.637604,315.218384 284.195221,291.597809 267.306732,270.346619 
M747.888306,286.398224 
	C738.407959,303.622009 734.076111,321.938354 735.575378,343.000854 
	C741.860352,336.315155 747.181641,330.653290 752.504517,324.992981 
	C755.397217,321.916870 759.287781,319.178558 755.458252,314.162842 
	C754.871399,313.394165 755.083313,311.893036 755.173279,310.750153 
	C755.785767,302.969727 755.903992,295.143524 757.495972,287.453766 
	C758.800537,281.151703 759.952332,274.817932 761.373230,267.454834 
	C755.839600,273.681030 751.891174,279.608917 747.888306,286.398224 
M510.996185,882.393799 
	C516.497253,882.595398 520.856689,879.513428 526.159058,877.798950 
	C515.575012,870.051331 509.699615,869.998047 500.047058,877.341797 
	C503.105133,879.880066 506.874664,880.643188 510.996185,882.393799 
z"/>
<path fill="#000000" opacity="1.000000" stroke="none" 
	d="
M609.259094,498.474365 
	C619.564636,477.070831 635.828369,465.205811 659.647766,464.803528 
	C685.354126,464.369415 702.814636,477.406097 714.308899,499.252136 
	C735.144775,538.853210 702.594055,589.246338 658.498718,588.153381 
	C643.656860,587.785522 630.470886,582.972534 619.625671,572.478577 
	C618.228760,571.127014 616.942688,569.503235 614.381897,569.001465 
	C611.204163,577.193298 609.585327,585.823303 607.413696,594.274048 
	C601.233948,618.322266 598.253662,642.957703 594.234741,667.401733 
	C593.964966,669.042542 593.676270,670.682678 593.320190,672.306396 
	C592.250305,677.184998 589.178284,679.702637 584.610229,679.441528 
	C579.619751,679.156372 578.138062,675.531677 578.009033,671.527527 
	C577.741089,663.212769 577.440247,654.842407 578.073120,646.565247 
	C580.420532,615.863037 585.668030,585.598145 592.799500,555.658630 
	C595.269348,545.289490 598.071228,534.996155 602.811157,525.386414 
	C604.639587,521.679504 605.156311,517.711121 605.472839,513.789001 
	C605.895081,508.557251 607.343567,503.679382 609.259094,498.474365 
M658.646423,508.798157 
	C658.270874,505.256470 659.199402,500.655334 655.849304,498.805969 
	C652.299988,496.846527 649.850586,501.288849 646.860413,502.793121 
	C645.839600,503.306671 645.037537,504.238983 644.045715,504.828705 
	C635.868164,509.690765 632.764282,516.819763 633.963196,526.197083 
	C634.528198,530.615845 633.725586,535.177368 634.756897,539.578491 
	C635.971558,544.761841 637.861206,545.485291 641.787170,542.096497 
	C645.676270,538.739502 649.273865,535.046753 653.042847,531.548157 
	C657.086365,527.794800 658.647766,523.068604 658.650757,517.696289 
	C658.652222,515.041138 658.650635,512.385986 658.646423,508.798157 
z"/>
<path fill="#000000" opacity="1.000000" stroke="none" 
	d="
M434.049683,560.146179 
	C439.971802,585.841248 444.371460,611.378357 447.031555,637.189331 
	C448.174683,648.281128 448.653809,659.440674 448.252350,670.607178 
	C448.053223,676.146423 445.730042,678.947205 441.242981,679.285461 
	C436.878174,679.614380 433.778992,677.202087 432.836700,671.840881 
	C430.302765,657.423645 428.164734,642.936951 425.647583,628.516602 
	C422.163910,608.559448 417.594696,588.846252 412.047638,569.382019 
	C409.371307,569.063293 408.224487,570.945190 406.792816,572.174866 
	C388.804260,587.625916 368.535736,593.072449 346.062256,584.216919 
	C324.427307,575.691772 310.526733,559.808472 306.673279,536.460510 
	C301.400574,504.513306 320.483978,474.324005 350.271301,466.640503 
	C382.333832,458.370087 412.453705,476.076172 419.545746,508.390045 
	C422.877136,523.568970 428.678284,537.924988 432.255524,552.963928 
	C432.794281,555.228821 433.386993,557.480957 434.049683,560.146179 
M368.545837,500.430054 
	C368.215027,502.395844 367.659851,504.353882 367.591553,506.328735 
	C367.266235,515.740173 365.775055,525.442444 374.121399,532.771057 
	C377.615204,535.838867 380.824280,539.228943 384.279663,542.342834 
	C387.596497,545.331970 389.212036,544.996155 390.660004,540.671814 
	C393.145569,533.248779 392.429413,525.586792 391.692444,517.973267 
	C391.414948,515.106323 390.689453,512.301270 388.331360,510.426758 
	C383.652740,506.707520 378.888580,503.092102 374.077911,499.544830 
	C372.423737,498.325104 370.525482,497.438080 368.545837,500.430054 
z"/>
<path fill="#000000" opacity="1.000000" stroke="none" 
	d="
M658.792603,436.996094 
	C634.570618,439.380676 619.084534,453.588348 607.415466,472.970703 
	C604.167114,478.366272 601.962585,484.380676 599.067383,490.002075 
	C597.382202,493.274170 594.538879,495.137085 590.822266,493.662598 
	C586.940857,492.122742 585.923279,488.813934 587.093506,484.992279 
	C595.135254,458.729309 610.976990,439.054108 636.529846,428.189026 
	C652.177979,421.535400 668.599487,421.648010 685.070984,424.870667 
	C688.859314,425.611847 691.591431,427.470337 691.336182,431.896210 
	C691.066406,436.574097 687.329834,437.011444 684.113403,437.065094 
	C677.808533,437.170380 671.494812,436.595123 665.181458,436.429413 
	C663.202698,436.377472 661.213196,436.735382 658.792603,436.996094 
z"/>
<path fill="#000000" opacity="1.000000" stroke="none" 
	d="
M383.825928,425.983032 
	C413.740753,435.932892 431.318451,456.780640 439.716248,486.158539 
	C440.833313,490.066345 439.154999,492.150970 435.792023,493.545715 
	C432.301788,494.993195 429.543640,494.251373 427.839630,490.800598 
	C424.594788,484.229523 421.755432,477.439789 418.207489,471.040405 
	C408.664581,453.828094 394.185303,442.848175 375.103729,437.972931 
	C369.854767,436.631836 364.494415,437.227234 359.179688,437.159180 
	C352.854309,437.078186 346.532379,437.214233 340.229645,436.387848 
	C337.672760,436.052612 335.646179,435.316742 335.151001,432.522949 
	C334.664124,429.775818 335.618805,427.654968 338.105469,426.222443 
	C340.178162,425.028473 342.461029,424.293030 344.749908,424.208282 
	C357.684631,423.729218 370.687286,422.045380 383.825928,425.983032 
z"/>
</svg>